<svg xmlns="http://www.w3.org/2000/svg" width="39" height="39" viewBox="0 0 39 39" fill="none">
  <g clip-path="url(#clip0_6_8844)">
    <path d="M33.8893 24.1895C33.8893 23.7389 33.8893 23.2822 33.8893 22.8255C33.8893 21.9827 33.8913 21.1389 33.8882 20.2962C33.8862 19.8599 33.6754 19.606 33.3345 19.6142C33.0091 19.6224 32.8076 19.8681 32.8066 20.2839C32.8024 21.4461 32.8055 22.6094 32.8055 23.7717C32.8055 23.9099 32.8055 24.0471 32.8055 24.2089C30.6918 24.2089 28.6101 24.2089 26.4736 24.2089C26.4736 24.0686 26.4736 23.9335 26.4736 23.7973C26.4736 22.5961 26.4767 21.396 26.4705 20.1948C26.4684 19.8323 26.2587 19.605 25.9457 19.6173C25.6027 19.6295 25.4415 19.8354 25.4167 20.159C25.4085 20.2736 25.4105 20.3883 25.4105 20.504C25.4105 21.5895 25.4105 22.676 25.4105 23.7614C25.4105 23.8997 25.4105 24.0379 25.4105 24.169C24.5696 24.3697 23.7131 23.828 23.6088 22.9699C23.5137 22.1875 23.5065 21.3898 23.5106 20.6003C23.5168 19.478 23.554 18.3547 23.6077 17.2334C23.6356 16.6466 23.9084 16.1213 24.4652 15.9196C25.5593 15.5253 26.6875 15.2212 27.8042 14.8874C27.8642 14.8689 27.9541 14.9119 28.0181 14.9467C29.0977 15.5294 30.1763 15.5325 31.261 14.958C31.352 14.9099 31.4852 14.8904 31.5834 14.916C32.4894 15.1526 33.4048 15.3656 34.2922 15.6584C35.3274 16.0005 35.7262 16.5811 35.7365 17.6716C35.751 19.3316 35.7499 20.9915 35.7355 22.6504C35.7262 23.656 34.9152 24.3359 33.8893 24.1895Z" fill="#E88E46"/>
    <path d="M5.11135 24.2007C4.04208 24.3051 3.27137 23.6457 3.26414 22.635C3.25175 20.9884 3.24968 19.3407 3.26311 17.6941C3.27241 16.5646 3.68152 15.9851 4.75699 15.641C5.63617 15.3594 6.53601 15.1413 7.42965 14.9109C7.53503 14.8832 7.67967 14.9283 7.78401 14.9815C8.83365 15.5171 9.87813 15.5191 10.9267 14.9795C11.03 14.9262 11.1747 14.8863 11.2811 14.9129C12.1272 15.1259 12.9806 15.3225 13.8102 15.5898C15.0354 15.9851 15.4218 16.4725 15.4507 17.7382C15.4879 19.3592 15.4817 20.9822 15.4466 22.6043C15.4228 23.6887 14.6366 24.342 13.6077 24.1884C13.6015 24.0583 13.5901 23.9222 13.5901 23.7849C13.5891 22.6862 13.5891 21.5874 13.5891 20.4886C13.5891 20.3862 13.5932 20.2838 13.5849 20.1825C13.556 19.8169 13.3515 19.606 13.0405 19.6141C12.7285 19.6223 12.5312 19.8404 12.5301 20.2091C12.525 21.3969 12.5281 22.5848 12.5281 23.7737C12.5281 23.9109 12.5281 24.0481 12.5281 24.2089C10.4071 24.2089 8.32639 24.2089 6.19612 24.2089C6.19612 24.0676 6.19612 23.9324 6.19612 23.7962C6.19612 22.6339 6.19818 21.4707 6.19508 20.3084C6.19405 19.8671 5.99053 19.6141 5.65167 19.6152C5.31177 19.6162 5.11341 19.866 5.11238 20.3105C5.11032 21.5977 5.11135 22.8859 5.11135 24.2007Z" fill="#E88E46"/>
    <path d="M15.2558 15.0082C14.6649 14.7911 14.1225 14.5996 13.5873 14.3887C13.5047 14.3559 13.4003 14.2361 13.4014 14.1572C13.4148 12.4983 13.4262 10.8394 13.4737 9.18055C13.4913 8.57228 13.825 8.07154 14.3973 7.87289C15.4604 7.50219 16.5524 7.21035 17.6371 6.90008C17.7281 6.87448 17.8582 6.94104 17.9574 6.99121C18.9822 7.50936 20.005 7.50527 21.034 6.99941C21.1632 6.93592 21.3377 6.88164 21.4669 6.91544C22.3378 7.13662 23.2139 7.34654 24.0662 7.62815C25.1892 7.99986 25.5756 8.53235 25.5962 9.70074C25.6221 11.1569 25.6097 12.613 25.6004 14.0692C25.5993 14.1767 25.5126 14.3457 25.4216 14.3825C24.8793 14.6037 24.3245 14.7942 23.7428 15.0061C23.7428 14.2258 23.7428 13.4374 23.7428 12.6489C23.7428 12.5086 23.748 12.3673 23.7408 12.227C23.7201 11.8338 23.5228 11.6208 23.1911 11.6249C22.8533 11.629 22.6694 11.8379 22.6674 12.2434C22.6632 13.4701 22.6653 14.6969 22.6653 15.9237C22.6653 16.0107 22.6653 16.0988 22.6653 16.2124C20.5577 16.2124 18.476 16.2124 16.3323 16.2124C16.3323 16.0885 16.3323 15.9544 16.3323 15.8202C16.3323 14.6314 16.3354 13.4435 16.3313 12.2546C16.3292 11.7938 16.0544 11.5388 15.666 11.6382C15.3292 11.7232 15.2558 11.9884 15.2558 12.2915C15.2558 13.0708 15.2558 13.8511 15.2558 14.6303C15.2558 14.7573 15.2558 14.8843 15.2558 15.0082Z" fill="#E88E46"/>
    <path d="M19.4999 38.5001C12.7341 38.3649 6.37938 36.7715 0.441053 33.5654C0.0309077 33.3442 -0.0899665 33.0831 0.0650004 32.7697C0.2241 32.4512 0.547464 32.3857 0.961742 32.61C4.1179 34.318 7.44452 35.5796 10.954 36.3599C14.2868 37.1013 17.6568 37.4218 21.0754 37.2774C27.0778 37.0234 32.7114 35.4721 37.9906 32.6366C38.0474 32.6059 38.1021 32.5721 38.161 32.5465C38.4896 32.4021 38.7819 32.483 38.9286 32.7564C39.0784 33.0359 38.9958 33.3257 38.6735 33.4978C37.9482 33.8838 37.223 34.2719 36.4791 34.6191C32.8012 36.3353 28.9581 37.518 24.9196 38.0147C23.1199 38.2359 21.3058 38.3424 19.4999 38.5001Z" fill="#E88E46"/>
    <path d="M19.5086 30.4584C13.5723 30.3519 8.06995 28.8251 3.00976 25.7562C2.8362 25.6507 2.64507 25.4705 2.60168 25.2923C2.56449 25.1408 2.68227 24.853 2.81554 24.7834C2.986 24.6943 3.27837 24.6912 3.45194 24.7793C4.30942 25.2145 5.13178 25.7193 5.99133 26.1504C9.00182 27.6588 12.19 28.6255 15.5321 29.0351C22.6379 29.9075 29.2746 28.5251 35.4113 24.8448C35.4557 24.8182 35.4991 24.7905 35.5435 24.767C35.8762 24.5898 36.1861 24.6523 36.3514 24.9298C36.5177 25.2083 36.4279 25.4951 36.0962 25.705C35.8472 25.8627 35.5921 26.0122 35.3359 26.1586C31.8212 28.1677 28.0669 29.503 24.0429 30.0396C22.5387 30.2393 21.02 30.3222 19.5086 30.4584Z" fill="#E88E46"/>
    <path d="M11.9972 11.589C11.989 12.0918 11.6667 12.9428 10.9621 13.6309C10.0581 14.5136 8.83489 14.5525 7.86686 13.7415C6.88437 12.9192 6.4391 11.3545 6.84511 10.1523C7.216 9.0546 8.26461 8.42278 9.56013 8.51699C11.0964 8.62759 11.9993 9.59118 11.9972 11.589Z" fill="#E88E46"/>
    <path d="M29.634 8.51186C31.6299 8.50571 32.7622 10.1421 32.1475 12.1481C31.9492 12.7963 31.6113 13.3585 31.0741 13.7927C30.2218 14.4808 29.135 14.4972 28.2672 13.8336C27.2247 13.037 26.7247 11.4211 27.1359 10.1769C27.4861 9.115 28.386 8.51595 29.634 8.51186Z" fill="#E88E46"/>
    <path d="M22.1499 3.00473C22.1437 4.0482 21.841 4.88277 21.1757 5.56578C20.1777 6.5898 18.784 6.58672 17.8057 5.54121C16.9503 4.62574 16.662 3.52903 16.9544 2.31762C17.2034 1.28849 17.9255 0.740648 18.9576 0.554278C20.4887 0.278819 21.7728 1.05195 22.0869 2.45689C22.1344 2.66784 22.1365 2.88697 22.1499 3.00473Z" fill="#E88E46"/>
    <path d="M10.4067 31.8184C10.4707 31.8184 10.541 31.802 10.5988 31.8204C11.4852 32.103 12.0111 31.6801 12.4161 30.952C12.5297 30.7483 12.7611 30.608 12.9378 30.438C13.0463 30.6653 13.2343 30.8886 13.2508 31.122C13.3149 32.0436 13.7994 32.5167 14.6992 32.6642C14.9245 32.7011 15.1249 32.8884 15.3356 33.0072C15.1569 33.1721 15.0061 33.4015 14.7953 33.4895C13.9544 33.8408 13.5969 34.4132 13.7539 35.3246C13.7932 35.5539 13.6558 35.813 13.599 36.0588C13.3882 35.9328 13.1227 35.8519 12.975 35.6748C12.3799 34.958 11.7012 34.8709 10.8871 35.2682C10.6804 35.3686 10.4077 35.3338 10.1649 35.3614C10.2135 35.1228 10.2031 34.8494 10.3219 34.6528C10.7899 33.8807 10.7621 33.1956 10.0719 32.5731C10.0533 32.5567 10.0378 32.5331 10.0275 32.5106C9.9366 32.3109 9.84672 32.1112 9.75684 31.9115C9.96862 31.8603 10.1804 31.8091 10.3922 31.759C10.3984 31.7784 10.4025 31.7979 10.4067 31.8184Z" fill="#E88E46"/>
    <path d="M28.5729 35.4269C28.1328 35.2908 27.6855 35.13 27.2247 35.0214C27.0708 34.9846 26.8518 35.0317 26.7206 35.1228C26.3951 35.3491 26.111 35.6328 25.7939 35.8714C25.6761 35.9594 25.5118 35.9871 25.3682 36.0424C25.3228 35.9062 25.2432 35.771 25.237 35.6328C25.2184 35.2252 25.2484 34.8146 25.2164 34.4091C25.205 34.2637 25.1006 34.0824 24.9818 33.9974C24.6285 33.7445 24.2411 33.5387 23.8785 33.297C23.7845 33.2345 23.6719 33.1045 23.6801 33.0144C23.6873 32.9284 23.8258 32.8188 23.9301 32.7799C24.3382 32.6273 24.7494 32.4798 25.1699 32.3672C25.393 32.3068 25.4788 32.1798 25.5263 31.9811C25.6234 31.5726 25.7174 31.163 25.8352 30.7605C25.8693 30.6428 25.9705 30.4697 26.0573 30.4595C26.1555 30.4472 26.298 30.5701 26.3776 30.6694C26.6338 30.9879 26.8817 31.3145 27.1111 31.6535C27.2423 31.848 27.3952 31.9136 27.6245 31.891C28.0595 31.848 28.4965 31.8183 28.9325 31.8019C29.0327 31.7979 29.1845 31.8439 29.2228 31.9146C29.2631 31.9873 29.2248 32.1388 29.169 32.2218C28.9201 32.5925 28.636 32.9417 28.3994 33.3206C28.3219 33.4445 28.294 33.6523 28.3405 33.7906C28.482 34.2125 28.6762 34.6159 28.8395 35.0307C28.9304 35.258 28.9066 35.4382 28.5729 35.4269Z" fill="#E88E46"/>
    <path d="M4.54373 32.7102C4.07779 32.7491 3.69451 32.7901 3.30916 32.8075C3.19448 32.8126 2.99406 32.7768 2.97649 32.7174C2.94343 32.6078 2.98476 32.4471 3.04984 32.3416C3.25853 32.0057 3.47652 31.6729 3.72343 31.3637C3.90216 31.1384 3.897 30.9448 3.77612 30.7021C3.60049 30.3489 3.44553 29.9843 3.30089 29.6177C3.25853 29.5102 3.22857 29.3146 3.28333 29.2706C3.37011 29.2009 3.54264 29.1887 3.66351 29.2173C4.0499 29.3085 4.43628 29.4088 4.80924 29.544C5.07061 29.6392 5.25657 29.6116 5.45803 29.4139C5.7597 29.119 6.08513 28.8456 6.41056 28.5763C6.65954 28.3705 6.85067 28.4473 6.86926 28.7698C6.89509 29.2153 6.8703 29.6638 6.90852 30.1082C6.92092 30.2547 7.02939 30.438 7.15234 30.5209C7.52219 30.7728 7.92614 30.9745 8.30426 31.2152C8.3962 31.2735 8.48815 31.4056 8.49125 31.506C8.49332 31.5756 8.35591 31.6801 8.25983 31.718C7.85382 31.8767 7.44574 32.0323 7.02836 32.1562C6.79488 32.2259 6.70086 32.359 6.65851 32.5802C6.57896 32.9918 6.49011 33.4035 6.3837 33.809C6.35581 33.9165 6.26386 34.065 6.17708 34.0845C6.0903 34.1039 5.94566 34.0066 5.87334 33.9216C5.63159 33.64 5.40328 33.3472 5.18426 33.0482C5.00243 32.7973 4.83093 32.5546 4.54373 32.7102Z" fill="#E88E46"/>
    <path d="M35.562 32.8065C35.1901 32.7758 34.813 32.7707 34.4473 32.7041C34.1684 32.6529 34.0227 32.7594 33.875 32.9663C33.6373 33.2991 33.3811 33.6216 33.1146 33.9329C33.0433 34.0159 32.9028 34.0906 32.8016 34.0814C32.7323 34.0753 32.6445 33.9268 32.6197 33.8285C32.5133 33.4086 32.4493 32.9775 32.3232 32.5638C32.2767 32.4123 32.1269 32.2443 31.9813 32.1788C31.5846 32.0006 31.161 31.8829 30.756 31.7211C30.6517 31.6791 30.5142 31.5685 30.508 31.4815C30.5018 31.3924 30.6196 31.2644 30.7147 31.2039C31.0608 30.9838 31.412 30.7677 31.7788 30.5824C32.0329 30.4533 32.1207 30.2793 32.1094 30.0048C32.0949 29.6229 32.1042 29.2378 32.128 28.8559C32.1362 28.731 32.192 28.5538 32.2829 28.5057C32.3604 28.4647 32.5412 28.5466 32.6373 28.6234C32.9772 28.8979 33.2882 29.2061 33.6342 29.4713C33.7438 29.5553 33.939 29.6003 34.0733 29.5696C34.5103 29.4703 34.936 29.3187 35.3719 29.2092C35.4784 29.1825 35.6395 29.2 35.7139 29.2665C35.7687 29.3146 35.7532 29.4867 35.7149 29.5829C35.5579 29.9731 35.3905 30.3602 35.2066 30.7401C35.1013 30.9592 35.0992 31.1323 35.2593 31.334C35.4897 31.6238 35.6943 31.9361 35.8895 32.2515C35.9711 32.3836 36.0869 32.6058 36.0331 32.6826C35.9567 32.7932 35.7397 32.8075 35.5837 32.8628C35.5765 32.8434 35.5693 32.825 35.562 32.8065Z" fill="#E88E46"/>
    <path d="M17.6499 36.2309C17.7336 35.7803 17.7935 35.3236 17.9112 34.8823C17.9805 34.6252 17.903 34.4829 17.7201 34.3252C17.3999 34.0487 17.093 33.7569 16.7934 33.4589C16.7211 33.3862 16.6343 33.2367 16.6643 33.1752C16.7087 33.0831 16.844 32.996 16.9525 32.9786C17.3957 32.908 17.8472 32.8803 18.2883 32.8004C18.4226 32.7759 18.5848 32.6653 18.6499 32.5475C18.8658 32.1574 19.0342 31.7426 19.2409 31.3463C19.2915 31.2491 19.4144 31.1262 19.5033 31.1272C19.5932 31.1282 19.713 31.2521 19.7636 31.3504C19.9692 31.7467 20.1376 32.1615 20.3535 32.5516C20.4186 32.6683 20.5829 32.7759 20.7182 32.8004C21.147 32.8783 21.585 32.9069 22.0158 32.9735C22.1305 32.9909 22.3113 33.0677 22.3226 33.1394C22.3392 33.2469 22.2617 33.4005 22.1759 33.4875C21.8794 33.7886 21.5695 34.0774 21.2503 34.3549C21.0891 34.4962 21.024 34.6252 21.0829 34.8495C21.1862 35.2427 21.2565 35.6462 21.3143 36.0486C21.334 36.1827 21.3143 36.3599 21.2358 36.4562C21.1945 36.5074 20.9734 36.4582 20.8608 36.4019C20.4816 36.2135 20.1242 35.9831 19.7388 35.809C19.6025 35.7475 19.3896 35.7486 19.2533 35.811C18.8462 35.9994 18.466 36.2411 18.0662 36.4449C17.8028 36.5801 17.6519 36.492 17.6499 36.2309Z" fill="#E88E46"/>
  </g>
  <defs>
    <clipPath id="clip0_6_8844">
      <rect width="39" height="38" fill="white" transform="translate(0 0.5)"/>
    </clipPath>
  </defs>
</svg>