<svg width="39" height="39" viewBox="0 0 39 39" fill="none" xmlns="http://www.w3.org/2000/svg">
<g clip-path="url(#clip0_6_8832)">
<path d="M34.4731 20.0496C33.7362 20.0496 32.9992 20.0532 32.2611 20.0484C31.6472 20.0436 31.3842 19.7936 31.3758 19.1752C31.3637 18.3248 31.3722 17.4743 31.3722 16.6239C31.3685 12.5056 29.3796 9.57745 25.8264 7.62058C24.1547 6.69955 22.3238 6.3132 20.4193 6.26655C18.4582 6.21871 16.5067 6.26655 14.6432 6.97706C11.0827 8.33587 8.65361 10.7293 7.8238 14.5043C7.64409 15.3237 7.66821 16.1921 7.63323 17.0389C7.60428 17.7686 7.63926 18.5006 7.62117 19.2315C7.6067 19.7912 7.33411 20.0448 6.76965 20.046C5.26561 20.052 3.76037 20.052 2.25633 20.046C1.77509 20.0436 1.44582 19.796 1.45426 19.381C1.49044 17.6239 1.4229 15.8512 1.64 14.1144C2.05973 10.7616 3.64337 7.93038 6.06165 5.5716C9.09264 2.61595 12.7665 0.990404 16.9831 0.629171C20.3144 0.344491 23.6276 0.458124 26.7973 1.69612C31.892 3.68649 35.4681 7.13136 37.0035 12.429C37.3437 13.6024 37.4353 14.8584 37.5354 16.0844C37.6211 17.1215 37.5572 18.1717 37.5523 19.2159C37.5499 19.7721 37.2858 20.0412 36.7285 20.0472C35.9771 20.0556 35.2245 20.0496 34.4731 20.0496Z" fill="#E88E46"/>
<path d="M19.5336 8.41602C24.7284 8.422 28.8955 12.5953 28.8859 17.7818C28.8762 22.906 24.6656 27.041 19.4636 27.0351C14.2725 27.0291 10.1017 22.8522 10.1113 17.6681C10.1198 12.5463 14.3316 8.41124 19.5336 8.41602ZM15.551 18.4444C16.3193 18.4444 17.0538 18.4528 17.7883 18.442C18.3142 18.4348 18.5988 18.1777 18.6025 17.692C18.6121 16.5139 18.6121 15.3357 18.6012 14.1575C18.5976 13.7292 18.3347 13.4458 17.9005 13.4374C16.8632 13.4183 15.8248 13.4075 14.7887 13.441C14.1917 13.4613 13.8672 14.1108 14.2387 14.5319C14.4003 14.7149 14.7211 14.8333 14.9768 14.8488C15.6921 14.8907 16.4121 14.8632 17.1491 14.8632C17.1491 15.5976 17.1491 16.2866 17.1491 17.0091C16.382 17.0091 15.6475 17.0007 14.9141 17.0114C14.3858 17.0186 14.0903 17.2949 14.0855 17.8069C14.0735 18.9552 14.0735 20.1035 14.0867 21.2517C14.0928 21.7218 14.3786 22.0113 14.849 22.0197C15.8561 22.0352 16.8644 22.0364 17.8715 22.0185C18.3323 22.0101 18.6181 21.6931 18.6037 21.2793C18.5892 20.857 18.2864 20.5975 17.7714 20.5915C17.0393 20.5831 16.306 20.5891 15.551 20.5891C15.551 19.8666 15.551 19.1872 15.551 18.4444ZM22.8492 17.9145C22.8492 18.2124 22.8492 18.4612 22.8492 18.7112C22.8504 19.5616 22.8384 20.4121 22.8564 21.2613C22.8661 21.7111 23.1966 22.0268 23.5849 22.0197C23.9842 22.0113 24.2724 21.6967 24.2869 21.2398C24.2954 20.9563 24.2893 20.6728 24.2893 20.3893C24.2893 19.5736 24.2893 18.7578 24.2893 17.9492C25.0287 17.8679 25.2675 17.7016 25.3001 17.2806C25.3362 16.8165 25.1324 16.6406 24.3159 16.4373C24.3086 16.4086 24.2941 16.3799 24.2941 16.3512C24.2917 15.8596 24.2905 15.3668 24.2881 14.8751C24.2857 14.2627 24.0348 13.9493 23.5572 13.9577C23.1025 13.9661 22.8552 14.2771 22.8504 14.862C22.8456 15.3943 22.8492 15.9265 22.8492 16.466C22.2739 16.466 21.7577 16.466 21.2041 16.466C21.2041 15.7364 21.2077 15.0378 21.2029 14.3405C21.198 13.7831 20.9182 13.4362 20.4852 13.4314C20.0426 13.4278 19.7676 13.7663 19.7652 14.3273C19.7627 15.2376 19.7615 16.1466 19.7652 17.0569C19.7676 17.6705 20.0172 17.9097 20.648 17.9133C21.3669 17.9169 22.0845 17.9145 22.8492 17.9145Z" fill="#E88E46"/>
<path d="M33.2407 25.7552C34.8545 26.1571 36.4502 26.5554 38.0471 26.9501C38.9083 27.1631 39 27.2695 39 28.1247C39 30.0936 39.0012 32.0612 39 34.0301C39 34.6078 38.8637 34.7944 38.2884 34.9403C36.6191 35.3637 34.9486 35.7764 33.2673 36.1951C33.2251 36.4415 33.2046 36.6939 33.1382 36.9331C32.8729 37.8756 32.0624 38.4857 31.0782 38.4964C30.5824 38.5012 30.0855 38.5024 29.5898 38.4964C28.3897 38.4821 27.4526 37.5539 27.4513 36.3589C27.4465 32.7646 27.4453 29.1714 27.4513 25.577C27.4538 24.4084 28.3945 23.4778 29.5657 23.461C29.9866 23.455 30.4076 23.4598 30.8285 23.4598C32.3108 23.4586 33.1382 24.2289 33.2407 25.7552Z" fill="#E88E46"/>
<path d="M5.75156 36.1926C4.13415 35.7931 2.52277 35.3936 0.910183 34.9965C0.0996678 34.7968 -0.000440508 34.6736 -0.000440508 33.8327C-0.000440508 31.8638 -0.00164663 29.8962 -0.000440508 27.9274C-0.000440508 27.346 0.138264 27.1642 0.70876 27.0195C2.37924 26.5985 4.05213 26.1822 5.74312 25.76C5.76604 25.559 5.77207 25.3509 5.81669 25.1511C6.04827 24.1356 6.90341 23.4658 7.96359 23.4586C8.44483 23.455 8.92608 23.4538 9.40732 23.4586C10.6086 23.4718 11.547 24.3964 11.5494 25.5925C11.5554 29.1869 11.5554 32.7801 11.5494 36.3745C11.547 37.5634 10.6002 38.4832 9.39405 38.4952C8.92849 38.5 8.46172 38.4976 7.99616 38.4952C6.73817 38.488 5.85046 37.6436 5.77689 36.3888C5.77327 36.3326 5.76242 36.274 5.75156 36.1926Z" fill="#E88E46"/>
<path d="M2.09082 25.5734C2.09082 24.0435 2.09082 22.6153 2.09082 21.1525C3.72512 21.1525 5.3968 21.1525 7.12639 21.1525C7.12639 21.5484 7.14207 21.9335 7.11432 22.3163C7.10829 22.406 6.972 22.5232 6.87069 22.5627C5.87564 22.9538 5.18815 23.6273 4.85043 24.6452C4.81304 24.76 4.72258 24.9167 4.62609 24.943C3.8192 25.1583 3.00627 25.3497 2.09082 25.5734Z" fill="#E88E46"/>
<path d="M36.8018 25.5411C35.9816 25.3437 35.1819 25.1547 34.3859 24.9514C34.3039 24.9311 34.2098 24.8282 34.1833 24.7445C33.8094 23.5507 32.9977 22.8067 31.7939 22.4622C31.7939 22.0161 31.7939 21.5879 31.7939 21.1321C33.4572 21.1321 35.1144 21.1321 36.8018 21.1321C36.8018 22.601 36.8018 24.0519 36.8018 25.5411Z" fill="#E88E46"/>
</g>
<defs>
<clipPath id="clip0_6_8832">
<rect width="39" height="38" fill="white" transform="translate(0 0.5)"/>
</clipPath>
</defs>
</svg>
