<svg width="1920" height="969" viewBox="0 0 1920 969" fill="none" xmlns="http://www.w3.org/2000/svg">
<g clip-path="url(#clip0_6_9814)">
<rect width="1920" height="969" fill="url(#paint0_linear_6_9814)"/>
<circle cx="959.633" cy="-137.868" r="513.101" transform="rotate(-134.845 959.633 -137.868)" fill="url(#paint1_linear_6_9814)" fill-opacity="0.5"/>
<path fill-rule="evenodd" clip-rule="evenodd" d="M45.6955 520C222.042 520 365 377.042 365 200.695C365 24.3486 222.042 -118.609 45.6955 -118.609C-130.651 -118.609 -273.609 24.3486 -273.609 200.695C-273.609 377.042 -130.651 520 45.6955 520ZM45.6955 426.522C170.416 426.522 271.522 325.416 271.522 200.696C271.522 75.9749 170.416 -25.1311 45.6955 -25.1311C-79.0251 -25.1311 -180.131 75.9749 -180.131 200.696C-180.131 325.416 -79.0251 426.522 45.6955 426.522Z" fill="url(#paint2_linear_6_9814)"/>
<circle cx="284.317" cy="992.818" r="221.83" transform="rotate(37.3654 284.317 992.818)" fill="url(#paint3_linear_6_9814)" fill-opacity="0.5"/>
<path fill-rule="evenodd" clip-rule="evenodd" d="M1900.39 1750.91C2313.78 1750.91 2648.9 1415.79 2648.9 1002.4C2648.9 589.01 2313.78 253.891 1900.39 253.891C1487 253.891 1151.88 589.01 1151.88 1002.4C1151.88 1415.79 1487 1750.91 1900.39 1750.91ZM1900.39 1531.78C2192.76 1531.78 2429.77 1294.77 2429.77 1002.4C2429.77 710.032 2192.76 473.02 1900.39 473.02C1608.02 473.02 1371.01 710.032 1371.01 1002.4C1371.01 1294.77 1608.02 1531.78 1900.39 1531.78Z" fill="url(#paint4_linear_6_9814)"/>
<circle cx="129.5" cy="838" r="23.5" stroke="white" stroke-width="8"/>
<path d="M1336 878.5L1355 897L1336 915.5" stroke="white" stroke-width="8" stroke-linecap="round" stroke-linejoin="round"/>
<path d="M1305 878.5L1324 897L1305 915.5" stroke="white" stroke-width="8" stroke-linecap="round" stroke-linejoin="round"/>
<path d="M1364 878.5L1383 897L1364 915.5" stroke="white" stroke-width="8" stroke-linecap="round" stroke-linejoin="round"/>
<path d="M1395 878.5L1414 897L1395 915.5" stroke="white" stroke-width="8" stroke-linecap="round" stroke-linejoin="round"/>
<path d="M111 469.5L129.5 450.5L148 469.5" stroke="white" stroke-width="10" stroke-linecap="round" stroke-linejoin="round"/>
<path d="M148 360.5L129.5 379.5L111 360.5" stroke="white" stroke-width="10" stroke-linecap="round" stroke-linejoin="round"/>
<path d="M152.627 399.338C153.485 398.48 153.966 397.317 153.966 396.105C153.966 394.893 153.485 393.73 152.627 392.873C151.77 392.015 150.607 391.534 149.395 391.534C148.183 391.534 147.02 392.015 146.162 392.873L130 409.035L113.838 392.873C112.98 392.015 111.817 391.534 110.605 391.534C109.393 391.534 108.23 392.015 107.373 392.873C106.515 393.73 106.034 394.893 106.034 396.105C106.034 397.317 106.515 398.48 107.373 399.338L123.535 415.5L107.373 431.662C106.515 432.52 106.034 433.682 106.034 434.895C106.034 436.107 106.515 437.27 107.373 438.127C108.23 438.985 109.393 439.466 110.605 439.466C111.817 439.466 112.98 438.985 113.838 438.127L130 421.965L146.162 438.127C147.02 438.985 148.183 439.466 149.395 439.466C150.607 439.466 151.77 438.985 152.627 438.127C153.485 437.27 153.966 436.107 153.966 434.895C153.966 433.682 153.485 432.52 152.627 431.662L136.465 415.5L152.627 399.338Z" fill="white"/>
</g>
<defs>
<linearGradient id="paint0_linear_6_9814" x1="960" y1="0" x2="960" y2="969" gradientUnits="userSpaceOnUse">
<stop stop-color="#FF9F52"/>
<stop offset="0.5" stop-color="#F18229"/>
<stop offset="1" stop-color="#E36500"/>
</linearGradient>
<linearGradient id="paint1_linear_6_9814" x1="1159.1" y1="375.234" x2="760.161" y2="-650.969" gradientUnits="userSpaceOnUse">
<stop stop-color="white" stop-opacity="0.8"/>
<stop offset="1" stop-color="white" stop-opacity="0"/>
</linearGradient>
<linearGradient id="paint2_linear_6_9814" x1="13.2493" y1="-74.4857" x2="-308.47" y2="317.212" gradientUnits="userSpaceOnUse">
<stop stop-color="#F06C00"/>
<stop offset="1" stop-color="#E5B83C" stop-opacity="0.35"/>
</linearGradient>
<linearGradient id="paint3_linear_6_9814" x1="370.555" y1="1214.65" x2="198.079" y2="770.988" gradientUnits="userSpaceOnUse">
<stop stop-color="white" stop-opacity="0.8"/>
<stop offset="1" stop-color="white" stop-opacity="0"/>
</linearGradient>
<linearGradient id="paint4_linear_6_9814" x1="1824.33" y1="357.324" x2="1070.16" y2="1275.54" gradientUnits="userSpaceOnUse">
<stop stop-color="#F06C00"/>
<stop offset="1" stop-color="#E5B83C" stop-opacity="0.35"/>
</linearGradient>
<clipPath id="clip0_6_9814">
<rect width="1920" height="969" fill="white"/>
</clipPath>
</defs>
</svg>
