<svg xmlns="http://www.w3.org/2000/svg" width="74" height="75" viewBox="0 0 74 75" fill="none">
  <g clip-path="url(#clip0_5_36925)">
    <path d="M61.8332 74.5032C43.4476 74.5032 25.0639 74.5032 6.67824 74.5032C6.57357 74.4548 6.47083 74.387 6.36034 74.3637C2.59211 73.5847 0.00823816 70.465 0.00629977 66.638C-0.00145379 56.7769 -0.00339218 46.9157 0.00823816 37.0546C0.0140533 32.7316 3.4702 29.2494 7.77731 29.2475C25.4302 29.2359 43.0812 29.2378 60.7341 29.2475C65.0141 29.2494 68.4935 32.7141 68.5013 36.981C68.5187 46.9138 68.5206 56.8486 68.4974 66.7814C68.4916 69.3043 67.3906 71.3273 65.4231 72.9007C64.3609 73.7533 63.099 74.1273 61.8332 74.5032ZM7.79863 42.5326C7.8122 42.5326 7.82577 42.5345 7.83933 42.5345C7.83933 43.236 7.81995 43.9374 7.84321 44.637C7.90718 46.5573 9.33383 48.028 11.2528 48.09C12.6543 48.1365 14.0596 48.1365 15.4591 48.09C17.351 48.028 18.7912 46.596 18.8571 44.7067C18.9075 43.3057 18.9017 41.9028 18.8591 40.5019C18.8009 38.5816 17.3394 37.1341 15.4204 37.0818C14.0422 37.0449 12.664 37.0469 11.2858 37.0818C9.57613 37.1244 8.22895 38.2444 7.93819 39.9341C7.79088 40.7828 7.83933 41.6645 7.79863 42.5326ZM34.217 64.3514C35.4982 64.3514 36.7795 64.3611 38.0588 64.3495C39.3983 64.3379 40.3287 63.5085 40.3442 62.3381C40.3597 61.1736 39.4196 60.2958 38.0976 60.29C35.537 60.2764 32.9744 60.2764 30.4119 60.29C29.0918 60.2958 28.1498 61.1716 28.1634 62.3362C28.1769 63.5066 29.1093 64.3398 30.4448 64.3514C31.7048 64.3592 32.9609 64.3514 34.217 64.3514ZM13.6816 60.2841C12.4973 60.2841 11.3129 60.2764 10.1286 60.2861C8.79302 60.2977 7.85872 61.1309 7.84515 62.2994C7.83158 63.4659 8.7717 64.3398 10.0917 64.3476C12.4605 64.3611 14.8272 64.3611 17.1959 64.3476C18.5199 64.3398 19.458 63.4659 19.4425 62.2994C19.429 61.129 18.4966 60.2996 17.1591 60.288C16 60.2764 14.8408 60.2841 13.6816 60.2841ZM54.8201 64.3514C56.0277 64.3514 57.2373 64.365 58.4449 64.3476C59.73 64.3301 60.643 63.4911 60.6643 62.344C60.6857 61.1794 59.7436 60.2958 58.4255 60.288C56.0568 60.2745 53.69 60.2745 51.3213 60.288C49.9974 60.2958 49.0573 61.1619 49.067 62.3265C49.0747 63.4969 50.009 64.334 51.3426 64.3476C52.5018 64.3611 53.6609 64.3514 54.8201 64.3514Z" fill="#E88E46"/>
    <path d="M74.0006 33.2491C73.9347 35.1791 73.3182 36.9172 72.0312 38.4015C71.7191 38.7619 71.3818 39.0933 70.8545 38.9111C70.2924 38.7174 70.2401 38.2446 70.2478 37.7272C70.3079 33.8401 68.7727 30.8037 65.398 28.7749C63.9558 27.9087 62.3663 27.5057 60.6993 27.5037C43.0677 27.4921 25.4342 27.496 7.80258 27.5037C7.25013 27.5037 6.69382 27.5774 6.14331 27.6587C5.6025 27.7382 5.14698 27.6432 4.97059 27.0832C4.79807 26.531 5.11403 26.188 5.58312 25.9187C10.3574 23.1748 15.1258 20.4213 19.8943 17.6697C29.0977 12.3603 38.3032 7.04903 47.5047 1.73771C51.6974 -0.682516 56.3108 0.520815 58.7299 4.69856C63.4247 12.806 68.1001 20.9232 72.791 29.0306C73.5508 30.3386 73.9657 31.726 74.0006 33.2491ZM58.6233 8.04696C48.4254 13.9338 38.2935 19.7819 28.1615 25.6319C34.0484 25.7636 39.8732 25.7675 45.6981 25.7501C45.9869 25.7501 46.2951 25.5854 46.5588 25.4342C50.7651 23.0159 54.9636 20.586 59.1641 18.16C60.4783 17.4004 61.7926 16.6408 63.1378 15.8638C61.6297 13.2478 60.1488 10.6842 58.6233 8.04696Z" fill="#E88E46"/>
  </g>
  <defs>
    <clipPath id="clip0_5_36925">
      <rect width="74" height="74" fill="white" transform="translate(0 0.5)"/>
    </clipPath>
  </defs>
</svg>