<?xml version="1.0" encoding="utf-8"?>
<!-- Generator: Adobe Illustrator 16.0.0, SVG Export Plug-In . SVG Version: 6.00 Build 0)  -->
<!DOCTYPE svg PUBLIC "-//W3C//DTD SVG 1.1//EN" "http://www.w3.org/Graphics/SVG/1.1/DTD/svg11.dtd">
<svg version="1.1" id="Layer_1" xmlns="http://www.w3.org/2000/svg" xmlns:xlink="http://www.w3.org/1999/xlink" x="0px" y="0px"
	 width="123.242px" height="157.546px" viewBox="0 0 123.242 157.546" enable-background="new 0 0 123.242 157.546"
	 xml:space="preserve">
<g>
	<path fill="none" stroke="#000000" stroke-miterlimit="10" d="M112.5,139.5c0,5.5-4.5,10-10,10h-83c-5.5,0-10-4.5-10-10v-113
		c0-5.5,4.5-10,10-10h83c5.5,0,10,4.5,10,10V139.5z"/>
</g>
<g>
	<path fill="none" stroke="#000000" stroke-miterlimit="10" d="M112.5,139.5c0,5.5-4.5,10-10,10h-83c-5.5,0-10-4.5-10-10v-113
		c0-5.5,4.5-10,10-10h83c5.5,0,10,4.5,10,10V139.5z"/>
</g>
<rect x="18.5" y="27.5" fill="none" stroke="#000000" stroke-miterlimit="10" width="86" height="114"/>
<polyline fill="none" stroke="#000000" stroke-miterlimit="10" points="29,49.333 34,54.334 43.667,44.667 "/>
<polyline fill="none" stroke="#000000" stroke-miterlimit="10" points="29,72.334 34,77.334 43.667,67.667 "/>
<polyline fill="none" stroke="#000000" stroke-miterlimit="10" points="29,95.334 34,100.334 43.667,90.667 "/>
<polyline fill="none" stroke="#000000" stroke-miterlimit="10" points="29,118.334 34,123.334 43.667,113.667 "/>
<g>
	<path fill="#FFFFFF" d="M74,28c0,2.761-2.239,5-5,5H46c-2.761,0-5-2.239-5-5v-9c0-2.761,2.239-5,5-5h23c2.761,0,5,2.239,5,5V28z"/>
	<path fill="none" stroke="#000000" stroke-miterlimit="10" d="M74.5,27.5c0,2.75-2.25,5-5,5h-23c-2.75,0-5-2.25-5-5v-9
		c0-2.75,2.25-5,5-5h23c2.75,0,5,2.25,5,5V27.5z"/>
</g>
<circle fill="#FFFFFF" stroke="#000000" stroke-miterlimit="10" cx="58" cy="12" r="7"/>
<line fill="none" stroke="#000000" stroke-miterlimit="10" x1="50" y1="49.5" x2="89" y2="49.5"/>
<line fill="none" stroke="#000000" stroke-miterlimit="10" x1="50" y1="72.5" x2="89" y2="72.5"/>
<line fill="none" stroke="#000000" stroke-miterlimit="10" x1="50" y1="95.5" x2="89" y2="95.5"/>
<line fill="none" stroke="#000000" stroke-miterlimit="10" x1="50" y1="118.5" x2="89" y2="118.5"/>
<g>
	<linearGradient id="SVGID_1_" gradientUnits="userSpaceOnUse" x1="54.2803" y1="111.5298" x2="102.5112" y2="111.5298">
		<stop  offset="0" style="stop-color:#1C38A5"/>
		<stop  offset="1" style="stop-color:#8705F9"/>
	</linearGradient>
	<path fill="url(#SVGID_1_)" d="M87.274,98.332L87.274,98.332c-4.33-2.25,0.106-5.824,1.589-7.307l0,0
		c0.757-0.752,1.228-1.795,1.228-2.948c0-2.294-1.86-4.153-4.154-4.153H70.854c-2.293,0-4.152,1.859-4.152,4.153
		c0,1.153,0.469,2.196,1.227,2.948l0,0c1.482,1.482,5.918,5.057,1.588,7.307h0.001c-8.926,3.535-15.238,12.244-15.238,22.428
		c0,13.318,8.162,18.376,24.116,18.376s24.115-5.058,24.115-18.376C102.511,110.576,96.199,101.867,87.274,98.332z"/>
	<linearGradient id="SVGID_2_" gradientUnits="userSpaceOnUse" x1="54.2803" y1="111.5298" x2="80.3257" y2="111.5298">
		<stop  offset="0" style="stop-color:#1C38A5"/>
		<stop  offset="1" style="stop-color:#8705F9"/>
	</linearGradient>
	<path fill="url(#SVGID_2_)" d="M80.326,139.109c-0.63,0.017-1.274,0.026-1.93,0.026c-15.955,0-24.116-5.058-24.116-18.375
		c0-10.185,6.313-18.894,15.239-22.431c1.35-0.702,1.847-1.531,1.847-2.388c0-1.888-2.418-3.897-3.437-4.917
		c-0.759-0.752-1.227-1.795-1.227-2.947c0-2.293,1.86-4.154,4.153-4.154h3.858c-2.293,0-4.153,1.861-4.153,4.154
		c0,1.152,0.468,2.195,1.228,2.947c1.018,1.02,3.437,3.029,3.437,4.917c0,0.856-0.498,1.686-1.848,2.388
		c-8.925,3.537-15.238,12.246-15.238,22.431C58.139,133.531,65.641,138.707,80.326,139.109z"/>
	<circle fill="none" cx="78.396" cy="117.521" r="14.439"/>
	<circle fill="#FFFFFF" cx="78.396" cy="117.521" r="10.953"/>
	<linearGradient id="SVGID_3_" gradientUnits="userSpaceOnUse" x1="73.6187" y1="117.6401" x2="82.9336" y2="117.6401">
		<stop  offset="0" style="stop-color:#1C38A5"/>
		<stop  offset="1" style="stop-color:#8705F9"/>
	</linearGradient>
	<path fill="url(#SVGID_3_)" d="M78.438,110.249c0.494,0,0.885,0.393,0.885,0.886v0.238c0.919,0.137,1.737,0.41,2.469,0.817
		c0.324,0.188,0.614,0.512,0.614,1.022c0,0.646-0.512,1.141-1.159,1.141c-0.204,0-0.409-0.05-0.596-0.153
		c-0.478-0.256-0.954-0.46-1.413-0.579v2.59c2.588,0.697,3.695,1.753,3.695,3.662c0,1.905-1.464,3.134-3.61,3.37v0.903
		c0,0.493-0.391,0.885-0.885,0.885c-0.494,0-0.885-0.392-0.885-0.885v-0.921c-1.209-0.152-2.35-0.577-3.355-1.191
		c-0.357-0.22-0.579-0.562-0.579-1.021c0-0.665,0.511-1.16,1.175-1.16c0.221,0,0.459,0.087,0.665,0.222
		c0.714,0.462,1.395,0.785,2.179,0.956v-2.708c-2.452-0.664-3.661-1.602-3.661-3.629c0-1.871,1.431-3.132,3.577-3.354v-0.205
		C77.553,110.642,77.944,110.249,78.438,110.249z M77.637,115.768v-2.301c-0.817,0.121-1.174,0.529-1.174,1.074
		C76.463,115.068,76.701,115.426,77.637,115.768z M79.239,118.748v2.367c0.8-0.12,1.208-0.494,1.208-1.107
		C80.447,119.445,80.158,119.071,79.239,118.748z"/>
	<path fill="#FFFFFF" d="M86.366,97.939c1.24,0,2.245-1.006,2.245-2.245s-1.005-2.244-2.245-2.244H70.425
		c-1.24,0-2.244,1.005-2.244,2.244s1.004,2.245,2.244,2.245H86.366z"/>
	<path fill="#CC9774" d="M109.999,134.2l1.448,1.546l-27.14,9.175l-3.533-4.137C80.774,140.784,104.087,130.669,109.999,134.2z"/>
	<path fill="#E3A882" d="M111.1,132.59l1.541,1.197l-26.87,10.334l-3.659-4.028C82.112,140.093,106.347,130.026,111.1,132.59z"/>
	<path fill="#FFCCBC" d="M95.46,134.012c0,0,11.172-5.196,15.356-1.203c0,0-20.936,10.111-23.232,11.22
		c-1.285,0.616-2.513,1.319-4.545,1.319c-2.075,0-21.532-4.244-28.947-4.298l-22.016,1.865l2.023-13.159
		c0,0,19.29-1.217,22.154-1.592c2.864-0.373,14.265-0.245,21.179,3.212C80.888,131.978,95.46,134.012,95.46,134.012z"/>
	<path fill="#E3A882" d="M95.559,134.092c0,0,1.728,5.303-17.403,3.914c-1.8-0.129-7.023-0.931-7.023-0.931s6.818,2.617,8.286,2.617
		C100.038,139.692,95.559,134.092,95.559,134.092z"/>
	<polygon fill="#ECEFF1" points="51.414,126.963 50.505,144.788 20.479,145.793 20.955,124.671 	"/>
	<linearGradient id="SVGID_4_" gradientUnits="userSpaceOnUse" x1="18.1074" y1="135.8413" x2="48.2637" y2="135.8413">
		<stop  offset="0" style="stop-color:#1C38A5"/>
		<stop  offset="1" style="stop-color:#8705F9"/>
	</linearGradient>
	<polygon fill="url(#SVGID_4_)" points="48.264,147.395 18.107,149.405 18.107,122.277 48.076,124.83 48.092,126.725 
		48.109,128.782 48.109,128.785 48.215,141.484 48.215,141.485 48.242,144.859 	"/>
	<linearGradient id="SVGID_5_" gradientUnits="userSpaceOnUse" x1="18.1074" y1="145.4453" x2="48.2637" y2="145.4453">
		<stop  offset="0" style="stop-color:#1C38A5"/>
		<stop  offset="1" style="stop-color:#8705F9"/>
	</linearGradient>
	<polygon fill="url(#SVGID_5_)" points="48.264,147.395 18.107,149.405 18.107,142.19 20.56,142.135 32.005,141.878 48.184,141.485 
		48.215,141.485 48.242,144.859 	"/>
</g>
</svg>
