<svg xmlns="http://www.w3.org/2000/svg" width="86" height="68" viewBox="0 0 86 68" fill="none">
  <path d="M28.1252 46.4294C27.8078 46.4294 27.4904 46.4752 27.1876 46.5721C25.4663 47.123 23.6561 47.4763 21.7502 47.4763C19.8444 47.4763 18.0341 47.123 16.3115 46.5721C16.0087 46.4752 15.6926 46.4294 15.3752 46.4294C7.13287 46.4294 0.456386 53.0352 0.500215 61.1668C0.518808 64.6032 3.38623 67.3669 6.87521 67.3669H36.6252C40.1142 67.3669 42.9816 64.6032 43.0002 61.1668C43.044 53.0352 36.3676 46.4294 28.1252 46.4294ZM21.7502 42.2419C28.7919 42.2419 34.5002 36.6176 34.5002 29.6794C34.5002 22.7413 28.7919 17.1169 21.7502 17.1169C14.7085 17.1169 9.00021 22.7413 9.00021 29.6794C9.00021 36.6176 14.7085 42.2419 21.7502 42.2419ZM79.1252 0.366943H28.1252C24.6097 0.366943 21.7502 3.27856 21.7502 6.85626V12.9294C24.8607 12.9294 27.7401 13.8167 30.2502 15.2587V8.74194H77.0002V46.4294H68.5002V38.0544H51.5002V46.4294H41.3746C43.9113 48.6135 45.7733 51.4976 46.6459 54.8044H79.1252C82.6408 54.8044 85.5002 51.8928 85.5002 48.3151V6.85626C85.5002 3.27856 82.6408 0.366943 79.1252 0.366943Z" fill="#E88E46"/>
</svg>