<svg xmlns="http://www.w3.org/2000/svg" width="33" height="34" viewBox="0 0 33 34" fill="none">
  <path d="M12.7031 20.7878C12.5032 20.9317 12.3467 21.0611 12.1748 21.166C11.651 21.4864 11.4556 21.9469 11.4592 22.5586C11.4746 25.5728 11.461 28.587 11.4737 31.6002C11.4746 31.9115 11.3805 32.0816 11.1091 32.2318C7.29221 34.3438 2.35174 32.6073 0.897006 28.6114C0.0936476 26.4044 0.426571 24.2616 1.52667 22.2537C2.06948 21.2619 2.79865 20.3706 3.46812 19.4504C4.0254 18.6839 4.6234 17.9474 5.19154 17.19C5.32 17.019 5.4557 16.9493 5.67102 16.9511C6.93486 16.9601 8.1987 16.9511 9.46255 16.9628C9.60187 16.9638 9.79276 17.0162 9.86965 17.1158C10.816 18.3211 11.7451 19.5409 12.7031 20.7878ZM7.08323 22.4528C7.0009 22.4862 6.92943 22.5152 6.85796 22.5442C6.0917 22.8572 5.6873 23.4635 5.72168 24.2453C5.75154 24.9349 6.26268 25.5393 7.02352 25.7502C7.2705 25.8189 7.53467 25.8253 7.78979 25.8696C8.19689 25.942 8.49996 26.2659 8.49815 26.6161C8.49725 26.9573 8.21318 27.2613 7.81964 27.3554C7.38992 27.4586 7.05699 27.3002 6.74669 27.0125C6.51961 26.8016 6.22921 26.8224 6.05551 27.0206C5.87095 27.2314 5.88362 27.4966 6.13422 27.7038C6.36672 27.8956 6.61913 28.0748 6.89053 28.2015C7.06514 28.2829 7.11851 28.3698 7.13027 28.5462C7.15199 28.8756 7.33925 29.0602 7.60252 29.0494C7.86488 29.0385 8.03767 28.8439 8.03767 28.5137C8.03767 28.3399 8.09286 28.2648 8.2566 28.1979C9.13505 27.8395 9.54849 27.1301 9.39289 26.2849C9.25356 25.5276 8.52439 24.9602 7.64323 24.9068C7.46682 24.8959 7.28497 24.8552 7.12213 24.7901C6.8272 24.6715 6.64355 24.4426 6.64627 24.115C6.64898 23.8028 6.83354 23.592 7.10404 23.4572C7.52291 23.2473 8.03858 23.3567 8.43483 23.7341C8.66281 23.9503 8.9324 23.973 9.1242 23.7911C9.31418 23.611 9.32865 23.3079 9.10248 23.1007C8.89079 22.9061 8.64471 22.7278 8.38235 22.6175C8.13447 22.5134 8.00963 22.4111 8.01415 22.1198C8.01777 21.8456 7.84859 21.651 7.541 21.6601C7.23793 21.6691 7.10494 21.8592 7.08413 22.1424C7.0769 22.2428 7.08323 22.3433 7.08323 22.4528Z" fill="#E88E46"/>
  <path d="M33.0009 20.4847C33.0009 24.4797 33.0009 28.4748 33.0009 32.4698C33.0009 33.0797 32.9466 33.1349 32.354 33.1349C31.519 33.1349 30.684 33.1367 29.8489 33.134C29.3939 33.1331 29.3052 33.048 29.3043 32.6083C29.3034 25.228 29.3043 17.8469 29.2998 10.4667C29.2998 10.2133 29.3858 10.045 29.5893 9.90207C30.494 9.26774 31.3869 8.61623 32.297 7.99005C32.4336 7.89594 32.6851 7.81541 32.7973 7.87966C32.9176 7.94843 32.9918 8.19546 32.9918 8.36467C33.0036 12.4041 33.0009 16.4444 33.0009 20.4847Z" fill="#E88E46"/>
  <path d="M27.3468 22.6817C27.3468 26.0786 27.3468 29.4755 27.3468 32.8724C27.3468 33.4335 27.2834 33.4986 26.7307 33.4986C25.8848 33.4995 25.038 33.5013 24.1921 33.4977C23.7751 33.4959 23.6774 33.3946 23.6774 32.9765C23.6765 26.8034 23.6783 20.6294 23.6729 14.4563C23.6729 14.2138 23.7561 14.059 23.9497 13.9224C24.8535 13.2872 25.7464 12.6357 26.6565 12.0086C26.7949 11.9136 27.0292 11.8439 27.1667 11.8982C27.2708 11.9389 27.3404 12.1941 27.3413 12.3542C27.3486 15.7973 27.3468 19.2395 27.3468 22.6817Z" fill="#E88E46"/>
  <path d="M21.7089 24.4788C21.7089 27.1763 21.7089 29.8728 21.7089 32.5703C21.7089 33.0779 21.6528 33.134 21.1443 33.1349C20.2758 33.1358 19.4064 33.1376 18.5379 33.134C18.1136 33.1322 18.0386 33.0598 18.0377 32.6409C18.0358 27.9237 18.0386 23.2066 18.0322 18.4894C18.0322 18.2361 18.1191 18.0732 18.3253 17.9293C19.2309 17.2968 20.1229 16.6435 21.0313 16.0155C21.1606 15.9259 21.3922 15.8499 21.5062 15.9078C21.6193 15.9648 21.698 16.1983 21.6989 16.3548C21.7125 19.0622 21.7089 21.7705 21.7089 24.4788Z" fill="#E88E46"/>
  <path d="M16.081 26.5049C16.081 28.5246 16.081 30.5443 16.081 32.564C16.081 33.0562 16.0041 33.1331 15.5129 33.1341C14.6444 33.1359 13.7759 33.1359 12.9074 33.1341C12.4876 33.1331 12.3863 33.0345 12.3863 32.6165C12.3845 29.2539 12.3872 25.8914 12.3809 22.5288C12.38 22.261 12.4822 22.0909 12.6957 21.9407C13.6013 21.3072 14.4933 20.6557 15.4025 20.0287C15.531 19.94 15.7653 19.8694 15.8757 19.9291C15.9915 19.9916 16.0711 20.2205 16.072 20.3779C16.0846 22.4203 16.081 24.4626 16.081 26.5049Z" fill="#E88E46"/>
  <path d="M7.59411 13.299C8.36037 13.299 9.12664 13.2936 9.89381 13.3008C10.661 13.3081 10.9423 13.8066 10.5624 14.4744C10.3063 14.9251 10.0585 15.3802 9.78073 15.8164C9.71288 15.9223 9.54189 16.0227 9.41795 16.0236C8.17853 16.039 6.93821 16.0381 5.6988 16.0245C5.5839 16.0236 5.42649 15.9286 5.36406 15.8291C5.07185 15.3621 4.80135 14.8807 4.53266 14.3993C4.21602 13.8302 4.5019 13.318 5.1596 13.3044C5.97111 13.2872 6.78261 13.2999 7.59411 13.2999C7.59411 13.299 7.59411 13.299 7.59411 13.299Z" fill="#E88E46"/>
  <path d="M2.12011 7.57829C1.58273 7.57829 1.08877 7.5801 0.594812 7.57739C0.228416 7.57558 0.0121965 7.40727 0.000435656 7.12133C-0.0113252 6.82362 0.21575 6.6345 0.594812 6.63269C1.08877 6.63088 1.58273 6.63178 2.1192 6.63178C2.1192 6.20106 2.1192 5.79839 2.1192 5.39572C2.1192 5.26089 2.11649 5.12516 2.12463 4.99033C2.14273 4.69805 2.29471 4.52613 2.59416 4.52522C2.89452 4.52341 3.05826 4.7062 3.07274 4.98762C3.09355 5.40386 3.07998 5.82192 3.08088 6.23907C3.08088 6.35942 3.08088 6.48067 3.08088 6.63359C3.60922 6.63359 4.10227 6.63179 4.59532 6.6345C4.97981 6.63631 5.19422 6.81638 5.18427 7.12404C5.17432 7.41541 4.96715 7.57829 4.59532 7.5792C4.10227 7.58101 3.60922 7.5801 3.08088 7.5801C3.08088 8.12846 3.08631 8.64334 3.07907 9.15912C3.07364 9.47945 2.89904 9.674 2.62854 9.68938C2.32909 9.70657 2.14001 9.5265 2.12463 9.18808C2.11287 8.92928 2.12101 8.66958 2.12011 8.40988C2.1192 8.14927 2.12011 7.89138 2.12011 7.57829Z" fill="#E88E46"/>
  <path d="M30.7275 1.74729C30.438 1.61156 30.2218 1.52107 30.0165 1.40977C29.7695 1.27584 29.6546 1.07315 29.7704 0.791733C29.8753 0.536556 30.1377 0.42797 30.4172 0.550129C31.0143 0.81164 31.606 1.08582 32.194 1.36633C32.4736 1.49935 32.5541 1.74095 32.4338 2.01694C32.1723 2.61416 31.8991 3.20686 31.6168 3.79413C31.4884 4.06288 31.1998 4.16332 30.9673 4.03573C30.7085 3.89276 30.6543 3.66111 30.7565 3.39779C30.8442 3.17067 30.9555 2.95259 31.0957 2.64222C29.964 3.04036 28.9109 3.41136 27.8407 3.7887C27.7367 3.49914 27.6362 3.21862 27.5195 2.89377C28.5617 2.52187 29.6103 2.14634 30.7275 1.74729Z" fill="#E88E46"/>
  <path d="M14.2222 10.2188C13.4686 10.2152 12.8435 9.58535 12.8516 8.83702C12.8607 8.08868 13.5021 7.45888 14.2439 7.46793C14.9985 7.47788 15.6145 8.10587 15.61 8.85964C15.6055 9.61702 14.9876 10.2224 14.2222 10.2188Z" fill="#E88E46"/>
  <path d="M21.2387 8.1964C21.2305 8.96102 20.6217 9.5501 19.8482 9.54196C19.0918 9.53472 18.4821 8.90492 18.4984 8.14753C18.5146 7.38924 19.1515 6.77121 19.8961 6.79112C20.656 6.81102 21.2468 7.42996 21.2387 8.1964Z" fill="#E88E46"/>
  <path d="M24.1455 4.09725C24.1482 3.34077 24.7743 2.71731 25.5224 2.72635C26.2769 2.7354 26.8912 3.36339 26.8849 4.11806C26.8777 4.88178 26.2679 5.48081 25.5016 5.4781C24.7354 5.47448 24.1428 4.87002 24.1455 4.09725Z" fill="#E88E46"/>
  <path d="M11.9271 9.28133C12.0393 9.55642 12.1533 9.83512 12.28 10.1464C11.4006 10.493 10.5149 10.8486 9.62381 11.1879C9.37321 11.2829 9.18051 11.1481 9.06923 10.9264C8.95343 10.6966 9.05928 10.4161 9.3135 10.3038C9.71518 10.1274 10.1268 9.97447 10.5348 9.8125C10.9844 9.63424 11.4341 9.45778 11.8846 9.28133C11.8946 9.27771 11.9072 9.28133 11.9271 9.28133Z" fill="#E88E46"/>
  <path d="M21.459 6.44268C22.095 5.983 22.7237 5.52966 23.3642 5.06726C23.5488 5.31701 23.7261 5.5568 23.9306 5.8346C23.3009 6.28976 22.6604 6.75306 22.0172 7.21816C21.8317 6.95846 21.6553 6.71415 21.459 6.44268Z" fill="#E88E46"/>
  <path d="M17.5432 7.97198C17.5794 8.32308 17.6083 8.60902 17.64 8.91759C17.2872 8.96283 16.9443 9.00626 16.5824 9.05241C16.5399 8.74475 16.4992 8.44886 16.4521 8.10591C16.8086 8.06157 17.1678 8.01723 17.5432 7.97198Z" fill="#E88E46"/>
</svg>