<svg xmlns="http://www.w3.org/2000/svg" width="42" height="33" viewBox="0 0 42 33" fill="none">
  <g clip-path="url(#clip0_6_8864)">
    <path d="M39.8842 25.9263C39.6516 25.9263 39.4691 25.9263 39.2879 25.9263C35.1012 25.9263 30.9146 25.9337 26.7279 25.9164C26.2234 25.9139 25.932 26.0698 25.763 26.5561C25.6136 26.9866 25.4924 27.5409 25.1703 27.7661C24.8667 27.9789 24.3181 27.8416 23.8772 27.8428C21.6621 27.8466 19.4457 27.8379 17.2305 27.8515C16.8962 27.854 16.7248 27.7661 16.584 27.4383C15.8027 25.6256 16.3035 25.9399 14.337 25.9312C10.4564 25.9151 6.57469 25.9263 2.69295 25.9263C2.51172 25.9263 2.33171 25.9263 2.12109 25.9263C2.12109 17.4372 2.12109 8.98656 2.12109 0.5C14.6994 0.5 27.279 0.5 39.883 0.5C39.8842 8.96924 39.8842 17.4199 39.8842 25.9263ZM24.2544 15.8325C25.0099 16.3645 25.7459 16.7877 26.3704 17.3395C28.1165 18.8849 29.0521 20.8546 29.1831 23.208C29.2321 24.0914 29.2835 24.1297 30.1713 24.131C31.4546 24.131 32.7379 24.1347 34.0224 24.1297C34.6445 24.1273 34.7853 23.9949 34.7559 23.3589C34.6188 20.3375 33.7543 17.5251 31.9065 15.1569C28.4055 10.6718 23.7707 8.88139 18.2016 9.90339C11.7777 11.0813 7.02654 16.9015 7.00573 23.4344C7.0045 23.9466 7.15022 24.1236 7.6437 24.1273C9.06415 24.1372 10.4858 24.1359 11.9063 24.1285C12.412 24.126 12.5528 23.9677 12.5687 23.4604C12.69 19.506 15.3313 16.2742 19.1775 15.418C20.5392 15.1149 21.9009 15.1705 23.2552 15.59C23.2344 15.6766 23.2258 15.7372 23.205 15.7929C22.5339 17.6266 21.8555 19.4577 21.1968 21.2951C21.1061 21.5488 20.9543 21.5562 20.7461 21.5661C19.8032 21.6156 19.0489 22.2924 18.8714 23.2327C18.6938 24.1755 19.1408 25.0849 19.9857 25.4994C20.8404 25.9176 21.8666 25.6924 22.4752 24.9513C23.0654 24.2324 23.1817 23.1077 22.5315 22.4421C22.0062 21.9039 22.1372 21.4819 22.3735 20.9561C22.4176 20.8584 22.4445 20.7532 22.4825 20.6517C23.0544 19.0952 23.6262 17.5387 24.2544 15.8325ZM33.3991 11.8026C36.2609 11.6715 38.4283 9.28599 38.2899 6.45878C38.1442 3.48063 35.6951 1.27578 32.891 1.48612C30.0758 1.69646 27.8912 4.14505 28.0774 6.87946C28.2757 9.77595 30.6758 11.9981 33.3991 11.8026Z" fill="#E88E46"/>
    <path d="M0.0023594 26.9446C0.713809 26.9446 1.35546 26.9446 1.99589 26.9446C6.2903 26.9446 10.5847 26.9483 14.8791 26.9384C15.195 26.9371 15.3836 27.0064 15.4889 27.3331C15.6114 27.7129 15.7547 28.0952 15.9592 28.433C16.0645 28.6087 16.3192 28.8005 16.5077 28.8017C19.5029 28.824 22.4981 28.8252 25.4933 28.8017C25.6819 28.8005 25.9378 28.6087 26.0419 28.433C26.2513 28.0792 26.3872 27.6795 26.5317 27.291C26.6235 27.046 26.7448 26.9371 27.0301 26.9384C31.9355 26.9495 36.841 26.9458 41.7464 26.947C41.8064 26.947 41.8677 26.9557 41.9975 26.9656C41.9975 27.5286 42.0036 28.0928 41.995 28.657C41.9877 29.1803 42.0367 29.7186 41.9326 30.2234C41.6717 31.4891 40.3774 32.4332 38.9251 32.495C38.8027 32.5 38.6802 32.4987 38.559 32.4987C26.8525 32.4987 15.1473 32.4975 3.44083 32.5012C2.38406 32.5012 1.45465 32.1993 0.707686 31.426C0.242366 30.9435 -0.00621228 30.3632 0.00113487 29.6765C0.00970655 28.7819 0.0023594 27.8898 0.0023594 26.9446Z" fill="#E88E46"/>
    <path d="M11.4705 14.7957C12.2995 15.6321 13.126 16.4672 13.9746 17.3234C12.5419 18.9542 11.7338 20.8918 11.5868 23.1065C10.3758 23.1065 9.20879 23.1065 8.04426 23.1065C7.83242 20.7186 9.64594 16.3559 11.4705 14.7957Z" fill="#E88E46"/>
    <path d="M20.4908 10.6223C20.4908 11.8571 20.4908 13.0214 20.4908 14.2252C18.3136 14.3626 16.3936 15.1247 14.776 16.534C13.9311 15.6803 13.1033 14.8451 12.2412 13.9753C14.558 11.8917 17.2875 10.7621 20.4908 10.6223Z" fill="#E88E46"/>
    <path d="M30.1884 23.104C30.0243 20.9425 29.2762 19.0618 27.9365 17.4917C28.7741 16.6317 29.6019 15.783 30.4529 14.9082C32.4918 17.217 33.6 19.939 33.7653 23.1028C32.5591 23.104 31.3946 23.104 30.1884 23.104Z" fill="#E88E46"/>
    <path d="M21.5088 14.2042C21.5088 13.0424 21.5088 11.8769 21.5088 10.6359C24.6583 10.8091 27.3534 11.9771 29.6445 14.0792C28.7935 14.9354 27.9645 15.7706 27.1575 16.5835C26.3432 16.0502 25.4909 15.4922 24.5983 14.9082C24.6852 14.6657 24.793 14.3663 24.8983 14.0669C25.0097 13.7514 24.9766 13.4655 24.6313 13.3455C24.2958 13.2292 24.0791 13.4074 23.964 13.7303C23.8611 14.0186 23.7521 14.3044 23.6395 14.6076C22.9268 14.4715 22.23 14.3403 21.5088 14.2042Z" fill="#E88E46"/>
    <path d="M19.8126 23.6386C19.8064 23.0459 20.2938 22.5485 20.8779 22.5497C21.451 22.5497 21.9175 23.0137 21.9322 23.5965C21.9469 24.2052 21.4902 24.6977 20.8987 24.7125C20.3256 24.7261 19.8187 24.225 19.8126 23.6386Z" fill="#E88E46"/>
    <path d="M33.2186 2.49452C35.479 2.5007 37.3134 4.36282 37.3134 6.65304C37.3134 8.94203 35.4301 10.8301 33.161 10.8165C30.8871 10.8029 29.0613 8.91728 29.0723 6.59489C29.0846 4.32199 30.9373 2.48957 33.2186 2.49452ZM34.9978 5.63476C35.0174 4.95548 34.6672 4.37025 34.1357 4.09557C33.8823 3.96442 33.6912 3.85677 33.6533 3.51528C33.6373 3.37299 33.3459 3.17008 33.1745 3.16513C33.0312 3.16018 32.7704 3.39279 32.7569 3.53879C32.7287 3.83697 32.5941 3.94709 32.3553 4.0634C31.6463 4.41231 31.3426 5.04333 31.4503 5.86118C31.5324 6.48354 31.9083 6.83987 32.6932 7.03537C32.9737 7.10589 33.2773 7.13064 33.5296 7.25808C33.7059 7.34716 33.908 7.56864 33.9227 7.74557C33.9374 7.92374 33.7806 8.18852 33.6202 8.29864C33.1108 8.64879 32.5132 8.36916 32.3736 7.74681C32.3014 7.42511 32.1214 7.24818 31.7932 7.30138C31.4577 7.35582 31.3499 7.60823 31.3854 7.91755C31.4565 8.53249 31.7871 8.97915 32.3345 9.24145C32.5634 9.35157 32.7336 9.42581 32.7581 9.74503C32.7692 9.89598 33.0435 10.1162 33.2173 10.1372C33.3557 10.1533 33.6386 9.92691 33.6557 9.78462C33.6961 9.43571 33.8884 9.30579 34.1541 9.15608C34.7762 8.80469 35.0529 8.16006 34.9341 7.42264C34.8276 6.76069 34.4002 6.41672 33.7794 6.27072C33.4537 6.19401 33.1157 6.13709 32.8145 5.99976C32.6504 5.92552 32.4545 5.70033 32.4532 5.5432C32.452 5.35513 32.6014 5.10025 32.763 4.99137C33.2737 4.64864 33.8823 4.93074 34.0121 5.54443C34.0757 5.84386 34.2472 6.06409 34.5349 5.99481C34.7382 5.94655 34.8986 5.71765 34.9978 5.63476Z" fill="#E88E46"/>
  </g>
  <defs>
    <clipPath id="clip0_6_8864">
      <rect width="42" height="32" fill="white" transform="translate(0 0.5)"/>
    </clipPath>
  </defs>
</svg>