<svg width="432" height="320" viewBox="0 0 432 320" fill="none" xmlns="http://www.w3.org/2000/svg">
<path d="M106 63C106 85 88 103 66 103H40C18 103 0 85 0 63V40C0 18 18 0 40 0H66C88 0 106 18 106 40V63Z" fill="#FFCD45"/>
<path d="M53.25 52.25C58.6348 52.25 63 47.8848 63 42.5C63 37.1152 58.6348 32.75 53.25 32.75C47.8652 32.75 43.5 37.1152 43.5 42.5C43.5 47.8848 47.8652 52.25 53.25 52.25Z" fill="white"/>
<path d="M71 71H34V62C34 62 35.5 56.75 53.25 56.75C71 56.75 71 62 71 62V71Z" fill="white"/>
<path d="M106 280C106 302 88 320 66 320H40C18 320 0 302 0 280V257C0 235 18 217 40 217H66C88 217 106 235 106 257V280Z" fill="#00D08A"/>
<path d="M53.25 269.25C58.6348 269.25 63 264.885 63 259.5C63 254.115 58.6348 249.75 53.25 249.75C47.8652 249.75 43.5 254.115 43.5 259.5C43.5 264.885 47.8652 269.25 53.25 269.25Z" fill="white"/>
<path d="M71 288H34V279C34 279 35.5 273.75 53.25 273.75C71 273.75 71 279 71 279V288Z" fill="white"/>
<path d="M432 63C432 85 414 103 392 103H366C344 103 326 85 326 63V40C326 18 344 0 366 0H392C414 0 432 18 432 40V63Z" fill="#FF2E6B"/>
<path d="M379.25 52.25C384.635 52.25 389 47.8848 389 42.5C389 37.1152 384.635 32.75 379.25 32.75C373.865 32.75 369.5 37.1152 369.5 42.5C369.5 47.8848 373.865 52.25 379.25 52.25Z" fill="white"/>
<path d="M397 71H360V62C360 62 361.5 56.75 379.25 56.75C397 56.75 397 62 397 62V71Z" fill="white"/>
<path d="M432 280C432 302 414 320 392 320H366C344 320 326 302 326 280V257C326 235 344 217 366 217H392C414 217 432 235 432 257V280Z" fill="#00D071"/>
<path d="M379.25 269.25C384.635 269.25 389 264.885 389 259.5C389 254.115 384.635 249.75 379.25 249.75C373.865 249.75 369.5 254.115 369.5 259.5C369.5 264.885 373.865 269.25 379.25 269.25Z" fill="white"/>
<path d="M397 288H360V279C360 279 361.5 273.75 379.25 273.75C397 273.75 397 279 397 279V288Z" fill="white"/>
<path d="M305 203C305 225.092 287.092 243 265 243H174C151.909 243 134 225.092 134 203V80C134 57.909 151.909 40 174 40H265C287.092 40 305 57.909 305 80V203Z" stroke="url(#paint0_linear_101_3)" stroke-width="4" stroke-miterlimit="10"/>
<path d="M281 206C281 217 272 226 261 226H179C168 226 159 217 159 206V197C159 186 168 177 179 177H261C272 177 281 186 281 197V206Z" fill="url(#paint1_linear_101_3)"/>
<path d="M212 209.437H186V191.437H216L212 209.437Z" fill="white"/>
<path d="M205.75 216.687C207.407 216.687 208.75 215.344 208.75 213.687C208.75 212.03 207.407 210.687 205.75 210.687C204.093 210.687 202.75 212.03 202.75 213.687C202.75 215.344 204.093 216.687 205.75 216.687Z" fill="white"/>
<path d="M192.75 216.687C194.407 216.687 195.75 215.344 195.75 213.687C195.75 212.03 194.407 210.687 192.75 210.687C191.093 210.687 189.75 212.03 189.75 213.687C189.75 215.344 191.093 216.687 192.75 216.687Z" fill="white"/>
<path d="M184 191H176V186H182L184 191Z" fill="white"/>
<path d="M190 198.437L182 191.437V186.437L190 193.437V198.437Z" fill="white"/>
<path d="M258 216.228C266.1 216.228 272.666 209.662 272.666 201.562C272.666 193.462 266.1 186.896 258 186.896C249.9 186.896 243.334 193.462 243.334 201.562C243.334 209.662 249.9 216.228 258 216.228Z" stroke="white" stroke-miterlimit="10"/>
<path d="M250 203.5L254.75 208.25L267.25 195.75" stroke="white" stroke-width="2" stroke-miterlimit="10" stroke-linecap="round"/>
<path d="M220 157.187C247.735 157.187 270.219 134.703 270.219 106.968C270.219 79.2328 247.735 56.749 220 56.749C192.265 56.749 169.781 79.2328 169.781 106.968C169.781 134.703 192.265 157.187 220 157.187Z" fill="url(#paint2_linear_101_3)"/>
<path d="M220.25 107.25C225.635 107.25 230 102.885 230 97.5C230 92.1152 225.635 87.75 220.25 87.75C214.865 87.75 210.5 92.1152 210.5 97.5C210.5 102.885 214.865 107.25 220.25 107.25Z" fill="white"/>
<path d="M238 126H201V117C201 117 202.5 111.75 220.25 111.75C238 111.75 238 117 238 117V126Z" fill="white"/>
<defs>
<linearGradient id="paint0_linear_101_3" x1="307" y1="141.499" x2="132" y2="141.499" gradientUnits="userSpaceOnUse">
<stop stop-color="#1C38A5"/>
<stop offset="1" stop-color="#8705F9"/>
</linearGradient>
<linearGradient id="paint1_linear_101_3" x1="281" y1="201.5" x2="159" y2="201.5" gradientUnits="userSpaceOnUse">
<stop stop-color="#1C38A5"/>
<stop offset="1" stop-color="#8705F9"/>
</linearGradient>
<linearGradient id="paint2_linear_101_3" x1="169.781" y1="106.968" x2="270.219" y2="106.968" gradientUnits="userSpaceOnUse">
<stop stop-color="#1C38A5"/>
<stop offset="1" stop-color="#8705F9"/>
</linearGradient>
</defs>
</svg>
