<svg width="240" height="120" viewBox="0 0 240 120" fill="none" xmlns="http://www.w3.org/2000/svg">
<path d="M0 120C0 104.241 3.1039 88.6371 9.13446 74.078C15.165 59.5189 24.0042 46.2902 35.1472 35.1472C46.2902 24.0042 59.5189 15.165 74.078 9.13445C88.6371 3.10389 104.241 -6.88831e-07 120 0C135.759 6.88832e-07 151.363 3.10389 165.922 9.13446C180.481 15.165 193.71 24.0042 204.853 35.1472C215.996 46.2902 224.835 59.5189 230.866 74.078C236.896 88.6371 240 104.241 240 120H192C192 110.545 190.138 101.182 186.519 92.4468C182.901 83.7114 177.598 75.7741 170.912 69.0883C164.226 62.4025 156.289 57.099 147.553 53.4807C138.818 49.8623 129.455 48 120 48C110.545 48 101.182 49.8623 92.4468 53.4807C83.7113 57.099 75.7741 62.4025 69.0883 69.0883C62.4025 75.7741 57.099 83.7113 53.4807 92.4468C49.8623 101.182 48 110.545 48 120H0Z" fill="#F4F8FB"></path>
<path d="M0 120C0 98.9356 5.54475 78.2423 16.077 60C26.6091 41.7577 41.7577 26.6091 60 16.077L84 57.6462C73.0546 63.9655 63.9655 73.0546 57.6462 84C51.3269 94.9454 48 107.361 48 120H0Z" fill="#FFE600"></path>
</svg>