<svg width="149" height="122" viewBox="0 0 149 122" fill="none" xmlns="http://www.w3.org/2000/svg">
<path d="M5.711 1H142.688C145.29 1 147.398 3.109 147.398 5.71V116.233C147.398 118.835 145.29 120.944 142.688 120.944H5.711C3.108 120.944 1 118.835 1 116.233V5.711C1 3.109 3.109 1 5.711 1Z" fill="#F6F7FC"/>
<path d="M5.711 1.001C3.101 1.001 1 3.102 1 5.711V10.31H147.398V5.711C147.398 3.101 145.295 1.001 142.686 1.001H5.711Z" fill="url(#paint0_linear_101_36)"/>
<path d="M142.744 3.028C144.195 3.028 145.372 4.205 145.372 5.655C145.372 7.106 144.195 8.282 142.744 8.282C141.294 8.282 140.117 7.106 140.117 5.655C140.117 4.205 141.293 3.028 142.744 3.028Z" fill="#E0E3F6"/>
<path d="M134.863 3.028C136.314 3.028 137.49 4.205 137.49 5.655C137.49 7.106 136.314 8.282 134.863 8.282C133.412 8.282 132.236 7.106 132.236 5.655C132.236 4.205 133.412 3.028 134.863 3.028Z" fill="#C0D2E8"/>
<path d="M5.711 1H142.688C145.29 1 147.398 3.109 147.398 5.71V116.233C147.398 118.835 145.29 120.944 142.688 120.944H5.711C3.108 120.944 1 118.835 1 116.233V5.711C1 3.109 3.109 1 5.711 1Z" stroke="url(#paint1_linear_101_36)" stroke-width="2"/>
<path d="M16.22 85.847C16.008 85.847 15.797 85.76 15.645 85.59C15.361 85.272 15.388 84.784 15.705 84.5L38.897 63.745C39.15 63.519 39.521 63.485 39.813 63.661L62.435 77.409L85.202 49.992C85.375 49.783 85.643 49.682 85.914 49.722L108.739 53.252L131.658 32.236C131.971 31.947 132.46 31.967 132.748 32.283C133.036 32.597 133.016 33.085 132.701 33.373L109.509 54.64C109.337 54.799 109.104 54.868 108.869 54.834L86.11 51.314L63.198 78.906C62.953 79.201 62.531 79.271 62.203 79.073L39.499 65.276L16.735 85.65C16.586 85.782 16.403 85.847 16.22 85.847Z" fill="url(#paint2_linear_101_36)"/>
<path d="M39.412 67.581C41.213 67.581 42.673 66.121 42.673 64.32C42.673 62.519 41.213 61.059 39.412 61.059C37.611 61.059 36.151 62.519 36.151 64.32C36.151 66.121 37.611 67.581 39.412 67.581Z" fill="url(#paint3_linear_101_36)"/>
<path d="M62.603 81.674C64.404 81.674 65.864 80.214 65.864 78.413C65.864 76.612 64.404 75.152 62.603 75.152C60.802 75.152 59.342 76.612 59.342 78.413C59.342 80.214 60.802 81.674 62.603 81.674Z" fill="url(#paint4_linear_101_36)"/>
<path d="M85.795 53.744C87.596 53.744 89.056 52.284 89.056 50.483C89.056 48.682 87.596 47.222 85.795 47.222C83.994 47.222 82.534 48.682 82.534 50.483C82.534 52.284 83.994 53.744 85.795 53.744Z" fill="url(#paint5_linear_101_36)"/>
<path d="M16.22 88.336C18.021 88.336 19.481 86.876 19.481 85.075C19.481 83.274 18.021 81.814 16.22 81.814C14.419 81.814 12.959 83.274 12.959 85.075C12.959 86.876 14.419 88.336 16.22 88.336Z" fill="url(#paint6_linear_101_36)"/>
<path d="M108.987 57.332C110.788 57.332 112.248 55.872 112.248 54.071C112.248 52.27 110.788 50.81 108.987 50.81C107.186 50.81 105.726 52.27 105.726 54.071C105.726 55.872 107.186 57.332 108.987 57.332Z" fill="url(#paint7_linear_101_36)"/>
<path d="M132.179 36.064C133.98 36.064 135.44 34.604 135.44 32.803C135.44 31.002 133.98 29.542 132.179 29.542C130.378 29.542 128.918 31.002 128.918 32.803C128.918 34.604 130.378 36.064 132.179 36.064Z" fill="url(#paint8_linear_101_36)"/>
<path d="M13.017 95.89H19.423C19.953 95.89 20.384 96.32 20.384 96.851V110.431C20.384 110.961 19.953 111.392 19.423 111.392H13.017C12.487 111.392 12.056 110.961 12.056 110.431V96.851C12.056 96.319 12.487 95.89 13.017 95.89ZM37.101 84.698H41.723C42.629 84.698 43.365 85.433 43.365 86.34V109.54C43.365 110.446 42.63 111.182 41.723 111.182H37.101C36.194 111.182 35.459 110.447 35.459 109.54V86.34C35.459 85.433 36.194 84.698 37.101 84.698ZM59.968 88.855H65.239C66.006 88.855 66.628 89.477 66.628 90.243V109.864C66.628 110.631 66.006 111.252 65.239 111.252H59.968C59.201 111.252 58.579 110.631 58.579 109.864V90.243C58.579 89.477 59.202 88.855 59.968 88.855ZM83.435 85.328H88.155C89.041 85.328 89.759 86.045 89.759 86.931V109.588C89.759 110.474 89.041 111.192 88.155 111.192H83.435C82.55 111.192 81.832 110.474 81.832 109.588V86.931C81.832 86.046 82.55 85.328 83.435 85.328ZM107.926 68.018H110.047C111.517 68.018 112.708 69.209 112.708 70.679V108.288C112.708 109.758 111.517 110.949 110.047 110.949H107.926C106.456 110.949 105.265 109.758 105.265 108.288V70.679C105.265 69.209 106.456 68.018 107.926 68.018ZM131.944 56.614H132.414C134.269 56.614 135.773 58.118 135.773 59.974V107.463C135.773 109.318 134.269 110.822 132.414 110.822H131.944C130.089 110.822 128.584 109.318 128.584 107.463V59.974C128.583 58.118 130.088 56.614 131.944 56.614Z" fill="url(#paint9_linear_101_36)"/>
<path d="M26.665 21.73C18.544 21.73 11.96 28.315 11.96 36.438C11.96 44.561 18.544 51.146 26.665 51.146C31.849 51.139 36.645 48.404 39.291 43.947L26.665 36.438V21.73Z" fill="url(#paint10_linear_101_36)"/>
<path d="M29.741 19.858V34.565L42.367 42.074C43.723 39.804 44.442 37.21 44.448 34.565C44.448 26.442 37.864 19.858 29.741 19.858Z" fill="url(#paint11_linear_101_36)"/>
<defs>
<linearGradient id="paint0_linear_101_36" x1="1.0004" y1="5.6554" x2="147.399" y2="5.6554" gradientUnits="userSpaceOnUse">
<stop stop-color="#1C38A5"/>
<stop offset="1" stop-color="#8705F9"/>
</linearGradient>
<linearGradient id="paint1_linear_101_36" x1="0.000399976" y1="60.9723" x2="148.398" y2="60.9723" gradientUnits="userSpaceOnUse">
<stop stop-color="#1C38A5"/>
<stop offset="1" stop-color="#8705F9"/>
</linearGradient>
<linearGradient id="paint2_linear_101_36" x1="15.4481" y1="58.9391" x2="132.951" y2="58.9391" gradientUnits="userSpaceOnUse">
<stop stop-color="#1C38A5"/>
<stop offset="1" stop-color="#8705F9"/>
</linearGradient>
<linearGradient id="paint3_linear_101_36" x1="36.1498" y1="64.3199" x2="42.6723" y2="64.3199" gradientUnits="userSpaceOnUse">
<stop stop-color="#1C38A5"/>
<stop offset="1" stop-color="#8705F9"/>
</linearGradient>
<linearGradient id="paint4_linear_101_36" x1="59.3422" y1="78.4132" x2="65.8646" y2="78.4132" gradientUnits="userSpaceOnUse">
<stop stop-color="#1C38A5"/>
<stop offset="1" stop-color="#8705F9"/>
</linearGradient>
<linearGradient id="paint5_linear_101_36" x1="82.5336" y1="50.4835" x2="89.0561" y2="50.4835" gradientUnits="userSpaceOnUse">
<stop stop-color="#1C38A5"/>
<stop offset="1" stop-color="#8705F9"/>
</linearGradient>
<linearGradient id="paint6_linear_101_36" x1="12.9584" y1="85.0748" x2="19.4809" y2="85.0748" gradientUnits="userSpaceOnUse">
<stop stop-color="#1C38A5"/>
<stop offset="1" stop-color="#8705F9"/>
</linearGradient>
<linearGradient id="paint7_linear_101_36" x1="105.726" y1="54.0709" x2="112.248" y2="54.0709" gradientUnits="userSpaceOnUse">
<stop stop-color="#1C38A5"/>
<stop offset="1" stop-color="#8705F9"/>
</linearGradient>
<linearGradient id="paint8_linear_101_36" x1="128.917" y1="32.8033" x2="135.44" y2="32.8033" gradientUnits="userSpaceOnUse">
<stop stop-color="#1C38A5"/>
<stop offset="1" stop-color="#8705F9"/>
</linearGradient>
<linearGradient id="paint9_linear_101_36" x1="12.0561" y1="84.0025" x2="135.773" y2="84.0025" gradientUnits="userSpaceOnUse">
<stop stop-color="#1C38A5"/>
<stop offset="1" stop-color="#8705F9"/>
</linearGradient>
<linearGradient id="paint10_linear_101_36" x1="11.9604" y1="36.4371" x2="39.2914" y2="36.4371" gradientUnits="userSpaceOnUse">
<stop stop-color="#1C38A5"/>
<stop offset="1" stop-color="#8705F9"/>
</linearGradient>
<linearGradient id="paint11_linear_101_36" x1="29.7406" y1="30.9654" x2="44.4477" y2="30.9654" gradientUnits="userSpaceOnUse">
<stop stop-color="#1C38A5"/>
<stop offset="1" stop-color="#8705F9"/>
</linearGradient>
</defs>
</svg>
