<svg xmlns="http://www.w3.org/2000/svg" width="15" height="18" viewBox="0 0 15 18" fill="none">
  <g clip-path="url(#clip0_5_36872)">
    <path d="M7.8982 0.5C8.2672 0.570677 8.64371 0.615162 9.00394 0.716604C10.1331 1.03424 11.0635 1.66409 11.7902 2.57832C12.6468 3.65552 13.0454 4.89071 12.9911 6.26309C12.9531 7.22056 12.671 8.10859 12.155 8.91847C11.5815 9.81898 11.0013 10.7153 10.424 11.6138C10.406 11.6416 10.3898 11.6699 10.3576 11.7231C10.5417 11.7576 10.712 11.7871 10.8815 11.8216C11.8173 12.0129 12.7373 12.2536 13.5876 12.7043C14.0284 12.9375 14.4337 13.2194 14.7184 13.6364C15.1437 14.2604 15.082 14.9909 14.5673 15.5742C14.2655 15.9159 13.8902 16.1608 13.487 16.3645C12.5424 16.8414 11.5277 17.0887 10.4912 17.2604C9.29906 17.4579 8.09731 17.5303 6.89139 17.4887C5.25511 17.4321 3.64262 17.2272 2.10235 16.6327C1.58767 16.4339 1.09888 16.1874 0.679788 15.8224C-0.258985 15.0046 -0.221 13.8821 0.766194 13.1204C1.39983 12.6315 2.12572 12.3334 2.88876 12.126C3.4168 11.9825 3.95569 11.8773 4.48956 11.7551C4.53172 11.7456 4.5743 11.7352 4.63232 11.7219C4.59893 11.6645 4.57388 11.6183 4.5455 11.5738C3.97155 10.68 3.38508 9.79403 2.82574 8.89145C2.12739 7.76477 1.86108 6.53832 2.06353 5.22372C2.33986 3.42936 3.29366 2.09065 4.85856 1.18349C5.49763 0.813058 6.19847 0.606431 6.93605 0.530765C6.99032 0.525361 7.04416 0.510809 7.09801 0.500416C7.36516 0.5 7.63189 0.5 7.8982 0.5ZM7.49957 14.3111C7.54256 14.2479 7.57721 14.2001 7.60893 14.1502C8.70131 12.4457 9.79495 10.7424 10.884 9.03613C11.119 8.66819 11.3832 8.31023 11.5569 7.91402C12.3416 6.12132 12.1016 4.45043 10.8076 2.9816C9.79912 1.83663 8.48092 1.36766 6.96569 1.53812C5.67169 1.68363 4.64109 2.31765 3.86427 3.36159C2.79735 4.79509 2.71721 6.86634 3.68019 8.36968C4.91783 10.3029 6.15882 12.2341 7.39855 14.1656C7.42694 14.2105 7.45908 14.2533 7.49957 14.3111ZM7.88735 16.5042C8.29475 16.4705 9.09786 16.4215 9.89638 16.3337C10.8185 16.2327 11.7197 16.0265 12.5821 15.6769C13.0354 15.4931 13.4778 15.2852 13.8105 14.9094C14.0505 14.6379 14.0635 14.3722 13.8068 14.1153C13.6139 13.922 13.3914 13.7449 13.1531 13.6127C12.1538 13.0577 11.051 12.8444 9.93478 12.6768C9.78827 12.6548 9.7219 12.7038 9.64843 12.8207C9.09327 13.6996 8.53435 14.5764 7.96499 15.4461C7.8886 15.5629 7.76254 15.6735 7.63439 15.7259C7.4069 15.8186 7.19402 15.7093 7.0354 15.4627C6.46228 14.5689 5.88958 13.6746 5.31981 12.7791C5.26721 12.6968 5.22255 12.6523 5.11068 12.6735C4.76256 12.74 4.40942 12.7795 4.06254 12.8506C3.2899 13.0086 2.5302 13.2152 1.84272 13.6127C1.60604 13.7495 1.38189 13.9228 1.18904 14.1161C0.933578 14.3722 0.944431 14.6416 1.18737 14.909C1.29423 15.0266 1.41695 15.1356 1.54802 15.2254C2.07438 15.5875 2.66879 15.7991 3.27822 15.9712C4.65528 16.3608 6.06615 16.483 7.88735 16.5042Z" fill="white"/>
    <path d="M9.99776 6.01639C9.99609 7.38877 8.87699 8.49965 7.49701 8.49923C6.11118 8.49882 4.99584 7.38046 5.00001 5.99602C5.00419 4.62613 6.12704 3.51858 7.50911 3.52149C8.88618 3.5244 9.99943 4.64068 9.99776 6.01639ZM6.0014 5.98563C6.01225 6.76266 6.55865 7.46776 7.47029 7.4952C8.23959 7.51849 8.95964 6.95889 8.9897 6.043C9.01557 5.26015 8.43578 4.54548 7.51955 4.5251C6.72896 4.50723 6.05274 5.08719 6.0014 5.98563Z" fill="white"/>
  </g>
  <defs>
    <clipPath id="clip0_5_36872">
      <rect width="15" height="17" fill="white" transform="translate(0 0.5)"/>
    </clipPath>
  </defs>
</svg>