<svg width="20" height="23" viewBox="0 0 20 23" fill="none" xmlns="http://www.w3.org/2000/svg">
<path d="M10.2212 0.5C10.6987 0.591464 11.186 0.649033 11.6522 0.780312C13.1134 1.19136 14.3175 2.00647 15.2579 3.18959C16.3664 4.58362 16.8823 6.18209 16.812 7.95812C16.7629 9.19719 16.3977 10.3464 15.73 11.3945C14.9878 12.5599 14.237 13.7198 13.4899 14.8825C13.4667 14.9186 13.4456 14.9551 13.404 15.024C13.6422 15.0687 13.8626 15.1069 14.0819 15.1515C15.293 15.399 16.4836 15.7105 17.584 16.2938C18.1544 16.5956 18.6789 16.9604 19.0473 17.5C19.5978 18.3076 19.5178 19.2529 18.8518 20.0077C18.4612 20.45 17.9756 20.7669 17.4538 21.0305C16.2313 21.6477 14.9181 21.9678 13.5769 22.19C12.0341 22.4455 10.4789 22.5392 8.91827 22.4854C6.80073 22.4122 4.71398 22.1469 2.72069 21.3776C2.05464 21.1204 1.42207 20.8013 0.879726 20.329C-0.335158 19.2707 -0.286 17.818 0.991545 16.8323C1.81155 16.1996 2.75094 15.8138 3.7384 15.5454C4.42174 15.3597 5.11912 15.2236 5.81002 15.0654C5.86458 15.0531 5.91968 15.0396 5.99477 15.0224C5.95155 14.9482 5.91914 14.8884 5.88241 14.8309C5.13965 13.6741 4.38069 12.5276 3.65683 11.3595C2.7531 9.90147 2.40846 8.31429 2.67045 6.61305C3.02805 4.29093 4.26238 2.55849 6.28755 1.38451C7.11458 0.905134 8.02155 0.637735 8.97607 0.539814C9.04629 0.53282 9.11598 0.513989 9.18566 0.500538C9.53138 0.5 9.87656 0.5 10.2212 0.5ZM9.70532 18.3732C9.76096 18.2914 9.8058 18.2296 9.84685 18.165C11.2605 15.9591 12.6758 13.7548 14.0852 11.5468C14.3893 11.0706 14.7312 10.6074 14.956 10.0946C15.9715 7.77465 15.6609 5.61232 13.9863 3.71148C12.6812 2.22975 10.9753 1.62286 9.01442 1.84345C7.33984 2.03176 6.00611 2.85225 5.00082 4.20323C3.6201 6.05835 3.51638 8.73879 4.7626 10.6843C6.36426 13.1861 7.97024 15.6852 9.5746 18.1849C9.61133 18.243 9.65292 18.2984 9.70532 18.3732ZM10.2072 21.2113C10.7344 21.1677 11.7737 21.1042 12.8071 20.9907C14.0004 20.86 15.1666 20.5931 16.2827 20.1406C16.8693 19.9028 17.4419 19.6338 17.8724 19.1474C18.183 18.7961 18.1998 18.4523 17.8676 18.1198C17.618 17.8696 17.3301 17.6404 17.0216 17.4693C15.7284 16.7511 14.3012 16.4751 12.8568 16.2582C12.6672 16.2297 12.5813 16.2932 12.4862 16.4444C11.7678 17.5818 11.0444 18.7165 10.3076 19.842C10.2088 19.9932 10.0456 20.1363 9.8798 20.2041C9.5854 20.3241 9.3099 20.1826 9.10463 19.8636C8.36295 18.7068 7.62182 17.5495 6.88446 16.3906C6.81639 16.2841 6.75859 16.2265 6.61382 16.2539C6.16331 16.34 5.70631 16.3911 5.25741 16.4831C4.25752 16.6876 3.27438 16.955 2.38469 17.4693C2.0784 17.6464 1.78832 17.8707 1.53876 18.1209C1.20816 18.4523 1.22221 18.801 1.53659 19.1469C1.67488 19.2992 1.8337 19.4401 2.00332 19.5563C2.68449 20.025 3.45372 20.2988 4.2424 20.5216C6.02448 21.0257 7.85031 21.1839 10.2072 21.2113Z" fill="white"/>
<path d="M12.9384 7.63886C12.9362 9.41488 11.488 10.8525 9.70212 10.852C7.9087 10.8514 6.46532 9.40412 6.47072 7.61249C6.47612 5.8397 7.92923 4.4064 9.71779 4.41016C11.4999 4.41393 12.9406 5.85853 12.9384 7.63886ZM7.76663 7.59904C7.78067 8.60461 8.48778 9.51711 9.66755 9.55262C10.6631 9.58275 11.5949 8.85856 11.6338 7.67329C11.6673 6.66019 10.917 5.73532 9.73129 5.70896C8.70818 5.68582 7.83307 6.43637 7.76663 7.59904Z" fill="white"/>
</svg>
